<svg xmlns="http://www.w3.org/2000/svg" xmlns:xlink="http://www.w3.org/1999/xlink" version="1.1" id="Layer_1" x="0px" y="0px" width="96px" height="96px" viewBox="0 0 96 96" enable-background="new 0 0 96 96" xml:space="preserve">
<path d="M70.859,66.859c0-12.031-7.203-15.584-18.096-20.963l-5.988-2.968c-10.808-5.328-13.632-7-13.632-13.788  c0-8.732,7.676-11.844,14.856-11.844c3.42,0,14.592,0.852,14.592,11.844c0,2.212,1.797,4,4,4c2.213,0,4-1.788,4-4  c0-10.024-6.523-17.208-16.68-19.22V4c0-2.208-1.788-4-4-4c-2.208,0-4,1.792-4,4v5.452C33.432,10.24,25.144,17.9,25.144,29.14  c0,12.04,7.196,15.588,18.088,20.963l5.989,2.969c10.812,5.336,13.639,7.008,13.639,13.787c0,10.869-11.375,11.713-14.859,11.713  c-3.484,0-14.856-0.844-14.856-11.713c0-2.207-1.792-4-4-4s-4,1.793-4,4c0,11.168,8.292,18.772,20.772,19.557V92  c0,2.208,1.792,4,4,4s4-1.792,4-4v-6.036C64.236,83.992,70.859,76.844,70.859,66.859L70.859,66.859z"/>
</svg>