<svg xmlns="http://www.w3.org/2000/svg" xmlns:xlink="http://www.w3.org/1999/xlink" version="1.1" id="Layer_1" x="0px" y="0px" width="100px" height="100px" viewBox="0 0 100 100" enable-background="new 0 0 100 100" xml:space="preserve">
<path d="M74.97,6.043C74.941,5.459,74.459,5,73.874,5H26.125c-0.585,0-1.067,0.459-1.096,1.043  c-0.003,0.072-0.356,7.319-0.284,16.085c0.098,11.817,0.88,20.63,2.326,26.195c0.78,3.006,1.66,5.696,2.51,8.296  c1.952,5.972,3.796,11.611,3.796,19.532v17.75c0,0.606,0.491,1.098,1.098,1.098h15.506v-2.195H35.573v-7.15h28.854v7.15H50.018V95  h15.507c0.606,0,1.098-0.491,1.098-1.098v-17.75c0-7.921,1.844-13.562,3.797-19.533c0.85-2.601,1.729-5.29,2.51-8.295  c1.445-5.564,2.228-14.377,2.325-26.195C75.327,13.362,74.974,6.115,74.97,6.043z M72.823,7.195c0.075,1.889,0.221,6.164,0.238,11.4  c-1.625,0.187-2.605,0.774-3.487,1.303c-0.94,0.564-1.753,1.051-3.464,1.051c-1.71,0-2.522-0.487-3.464-1.051  c-1.065-0.639-2.274-1.364-4.592-1.364s-3.526,0.725-4.592,1.364c-0.941,0.564-1.754,1.051-3.464,1.051  c-1.71,0-2.523-0.487-3.463-1.051c-1.066-0.639-2.274-1.364-4.592-1.364c-2.317,0-3.526,0.725-4.592,1.364  c-0.941,0.564-1.753,1.051-3.463,1.051s-2.522-0.487-3.463-1.051c-0.882-0.529-1.862-1.116-3.486-1.303  c0.018-5.236,0.163-9.512,0.238-11.4H72.823z M70.804,47.772c-0.763,2.94-1.632,5.596-2.472,8.165  c-2.008,6.144-3.905,11.945-3.905,20.216v7.307H35.573v-7.307c0-8.271-1.896-14.072-3.905-20.214  c-0.84-2.569-1.709-5.227-2.472-8.167c-1.766-6.799-2.222-17.923-2.257-26.96c1.007,0.161,1.646,0.543,2.357,0.97  c1.066,0.639,2.274,1.363,4.592,1.363c2.318,0,3.526-0.724,4.592-1.363c0.94-0.564,1.753-1.051,3.463-1.051s2.522,0.487,3.463,1.051  c1.066,0.639,2.274,1.363,4.592,1.363c2.317,0,3.526-0.724,4.592-1.363c0.941-0.564,1.754-1.051,3.464-1.051  s2.522,0.487,3.464,1.051c1.065,0.639,2.274,1.363,4.592,1.363c2.318,0,3.526-0.724,4.593-1.363c0.711-0.427,1.35-0.809,2.358-0.97  C73.026,29.849,72.57,40.972,70.804,47.772z"/>
</svg>