<svg xmlns="http://www.w3.org/2000/svg" xmlns:xlink="http://www.w3.org/1999/xlink" version="1.1" id="Layer_1" x="0px" y="0px" viewBox="0 0 100 100" enable-background="new 0 0 100 100" xml:space="preserve" height="100px" width="100px">
<polygon points="15.2,81.6 15.2,78.6 36,74 76.9,81.3 76.9,84.6 59.2,93.9 "/>
<g>
	<g>
		<g enable-background="new    ">
			<g>
				<path d="M59.9,80.6c1.5,0.9,0.2,1.9-2.8,2.3c-3.1,0.4-6.8,0.1-8.3-0.8s-0.2-1.9,2.8-2.3C54.6,79.3,58.4,79.7,59.9,80.6z"/>
			</g>
			<g>
				<path d="M48.2,16.2c0-0.6,1.3-1.3,3.5-1.5c3.1-0.4,6.8-0.1,8.3,0.8l-0.1,65.1c-1.5-0.9-5.2-1.2-8.3-0.8      c-2.2,0.3-3.5,0.9-3.5,1.5C48.1,61.8,48.1,35.7,48.2,16.2z"/>
			</g>
			<g>
				<path d="M54.2,38.1c0.4-0.1,0.8,0.1,1,0.2c0.2,0.1,0,0.3-0.8,0.5c0.9-0.2,1.1-0.3,0.8-0.5c0.4,0.3,0.1,0.5-0.2,0.5      c-0.8,0.2-1.8-0.1-1.5-0.4C53.5,38.3,54,38.2,54.2,38.1z"/>
			</g>
			<g>
				<path d="M55.2,38.3c-0.1-0.1-0.4-0.2-0.8-0.2C54.7,38.2,55,38.3,55.2,38.3c0.4,0.2,0.1,0.4-0.2,0.5c-0.7,0.2-1.8,0-1.6-0.4      c0.1-0.2,0.6-0.3,0.9-0.4C54.4,38.1,54.8,38.1,55.2,38.3z"/>
			</g>
			<g>
				<path d="M60.5,81.3c0-0.3-0.2-0.5-0.6-0.8L60,15.4c0.4,0.2,0.6,0.5,0.6,0.8C60.6,35.7,60.5,61.8,60.5,81.3z"/>
			</g>
			<g>
				<path d="M60,15.4c1.5,0.9,0.2,1.9-2.8,2.3c-3.1,0.4-6.8,0.1-8.3-0.8s-0.2-1.9,2.8-2.3C54.7,14.2,58.5,14.6,60,15.4z"/>
			</g>
			<g>
				<path d="M48.1,81.3l0.1-65.1c0,0.3,0.2,0.5,0.6,0.8c1.5,0.9,5.2,1.2,8.3,0.8c2.2-0.3,3.5-0.9,3.5-1.5l-0.1,65.1      c0,0.6-1.3,1.3-3.5,1.5c-3.1,0.4-6.8,0.1-8.3-0.8C48.3,81.8,48.1,81.5,48.1,81.3z"/>
			</g>
		</g>
	</g>
</g>
<polygon points="60.5,27.1 62.1,28.7 62.1,43.8 60.5,45.4 "/>
<path d="M54.3,35.7c-0.8,0-2,0.1-3.8,0c-0.5,0-1,0-1.4,0.1l0.1,0.6h-1l0,9.1l-1.6-1.6v-7.5c0,0,0,0,0,0c-4.1,1.5-6.4,5.2-6.7,5.6  c0,0,0,0,0,0c0,0,0,0,0,0l-1.9-1.1l0,0c0,0,0-0.1,0.1-0.2l0.1-0.2c0.4-1,1-3.8-1.7-4.2h-2.7c-1.4,0-2.7-1-2.8-2.2  c-0.2-1.2,0.9-2.2,2.3-2.2v-0.6l1.2-0.9c0-0.1-0.1-0.2-0.1-0.4c0-0.4,0.2-0.8,0.5-1.1l-3-17.5v0l-0.2-1.2c0-2.3,1.9-4.2,4.2-4.2  S40,7.9,40,10.2l-0.2,1.2v0l-3,17.5c0.3,0.3,0.5,0.7,0.5,1.1c0,0.1,0,0.3-0.1,0.4l1.2,0.9v0.6h8.2v-3.2l1.6-1.6l0,4.7h0.5l0.2,1.8  c1.8,0.4,4.2,0.8,5.5,1.2C55.5,35.2,55.9,35.5,54.3,35.7z"/>
<path d="M46.6,36.3L46.6,36.3L46.6,36.3C46.6,36.3,46.6,36.3,46.6,36.3z"/>
</svg>