<svg xmlns="http://www.w3.org/2000/svg" xmlns:xlink="http://www.w3.org/1999/xlink" version="1.1" id="Layer_1" x="0px" y="0px" width="50px" height="50px" viewBox="0 0 50 50" enable-background="new 0 0 50 50" xml:space="preserve">
<g>
	<g>
		<polygon fill="#000000" points="36.367,1.257 8.267,48.743 13.478,48.743 41.506,1.257   "/>
	</g>
	<g>
		<path fill="#000000" d="M23.735,14.323c0-3.59-0.838-6.225-2.512-8.078c-1.676-1.795-3.77-2.752-6.345-2.752    c-2.749,0-4.904,1.02-6.339,3.051c-1.496,2.035-2.214,4.549-2.214,7.42c0,3.709,0.835,6.523,2.452,8.318    c1.617,1.854,3.71,2.746,6.165,2.746c2.452,0,4.545-0.893,6.28-2.746C22.897,20.425,23.735,17.733,23.735,14.323z M18.17,20.009    c-0.836,1.074-1.915,1.613-3.172,1.613c-1.195,0-2.213-0.539-3.048-1.613c-0.839-1.078-1.257-2.934-1.257-5.508    c0-2.871,0.418-4.846,1.257-5.922c0.775-1.078,1.853-1.615,3.048-1.615c1.257,0,2.274,0.537,3.111,1.615    c0.839,1.018,1.258,2.873,1.258,5.506C19.368,16.954,18.949,18.931,18.17,20.009z"/>
	</g>
	<g>
		<path fill="#000000" d="M41.162,28.341c-1.678-1.852-3.77-2.75-6.342-2.75c-2.811,0-4.908,1.016-6.402,3.053    c-1.434,2.031-2.213,4.484-2.213,7.418c0,3.705,0.838,6.461,2.451,8.316c1.678,1.854,3.713,2.748,6.164,2.748    c2.512,0,4.607-0.953,6.342-2.811c1.676-1.855,2.512-4.486,2.512-7.955C43.674,32.831,42.838,30.136,41.162,28.341z     M38.051,42.044c-0.779,1.076-1.854,1.613-3.109,1.613s-2.275-0.537-3.113-1.613c-0.836-1.016-1.256-2.875-1.256-5.445    c0-2.93,0.42-4.906,1.256-5.924c0.838-1.076,1.857-1.613,3.113-1.613s2.273,0.537,3.109,1.555c0.838,1.076,1.258,2.93,1.258,5.563    C39.309,39.05,38.889,41.028,38.051,42.044z"/>
	</g>
</g>
</svg>