<svg xmlns="http://www.w3.org/2000/svg" xmlns:xlink="http://www.w3.org/1999/xlink" version="1.1" id="Clock-Icon" x="0px" y="0px" width="100px" height="100px" viewBox="0 0 100 100" enable-background="new 0 0 100 100" xml:space="preserve">
<path id="Hands" fill="#000000" d="M63.378,72.982c-0.968,0-1.917-0.467-2.496-1.331L47.507,51.67  C47.176,51.176,47,50.595,47,50.001V16.667c0-1.657,1.343-3,3-3c1.657,0,3,1.343,3,3v32.422l12.868,19.224  c0.922,1.377,0.553,3.24-0.824,4.162C64.531,72.818,63.951,72.982,63.378,72.982z"/>
<path id="Outline" fill="#000000" d="M50,5c24.812,0,45,20.187,45,45c0,24.812-20.188,45-45.003,45C25.185,95,5,74.812,5,50  C5,25.187,25.187,5,50,5 M50,0C22.386,0,0,22.386,0,50s22.386,50.001,50,50c27.613,0,50-22.385,50-50S77.613,0,50,0L50,0z"/>
</svg>