<svg xmlns="http://www.w3.org/2000/svg" xmlns:xlink="http://www.w3.org/1999/xlink" version="1.1" x="0px" y="0px" width="100px" height="100px" viewBox="0 0 100 100" enable-background="new 0 0 100 100" xml:space="preserve">
<g id="Captions" display="none">
</g>
<g id="Your_Icon">
	<g>
		<path fill="#000000" d="M49.517,55.45l25.262-12.241c3.64-1.639,1.271-6.918-2.551-5.225l-21.462,9.667V22.257    c0-3.987-6.024-3.805-6.024,0l0.09,30.417C44.831,54.948,47.288,56.588,49.517,55.45z"/>
	</g>
	<path fill="#000000" d="M49.618,0C22.215,0,0,22.214,0,49.616C0,77.02,22.215,99.233,49.618,99.233   c27.401,0,49.614-22.214,49.614-49.617C99.232,22.214,77.02,0,49.618,0z M49.618,93.566c-24.271,0-43.951-19.679-43.951-43.95   c0-24.272,19.68-43.949,43.951-43.949s43.949,19.677,43.949,43.949C93.567,73.888,73.89,93.566,49.618,93.566z"/>
	<path fill="#000000" d="M49.618,49.616"/>
</g>
</svg>